PathFileType	3	(X/Y/Z)	E:\ViconData\BIOM9541 2025\Week 7\Wed1100\Hanif high squat 7-5 Squat 01.trc
DataRate	CameraRate	NumFrames	NumMarkers	Units	OrigDataRate	OrigDataStartFrame	OrigNumFrames
200.0	200.0	17	19	mm	200.0	1	1756	
Frame#	Time	C7			CLAV			RBAK			LASI			RASI			LPSI			RPSI			LTHI			LKNE			LTIB			LANK			LHEE			LTOE			RTHI			RKNE			RTIB			RANK			RHEE			RTOE			
		X1	Y1	Z1	X2	Y2	Z2	X3	Y3	Z3	X4	Y4	Z4	X5	Y5	Z5	X6	Y6	Z6	X7	Y7	Z7	X8	Y8	Z8	X9	Y9	Z9	X10	Y10	Z10	X11	Y11	Z11	X12	Y12	Z12	X13	Y13	Z13	X14	Y14	Z14	X15	Y15	Z15	X16	Y16	Z16	X17	Y17	Z17	X18	Y18	Z18	X19	Y19	Z19	
1	0.0	297.51056	1323.613	-1196.9271	150.41647	1241.1478	-1193.1257	315.99149	1245.8971	-1350.2971	201.29897	874.9126	-1077.0948	187.5987	884.1174	-1335.7833	363.193	946.841	-1167.655	360.5194	944.9531	-1241.9185	269.31366	553.13751	-1001.4585	291.77829	417.93311	-1004.1055	308.85986	220.28085	-964.37372	311.63843	63.414425	-968.50928	333.84592	48.870232	-1025.3344	161.94185	37.718468	-950.04883	255.07095	728.10498	-1401.2783	291.90732	419.47562	-1411.2556	303.37427	332.84451	-1436.7743	307.17438	73.071663	-1434.3776	328.78445	48.720837	-1370.8542	162.38809	40.152424	-1462.6119	
2	0.005	297.22699	1323.6963	-1196.9502	151.47948	1240.5126	-1193.3481	315.69708	1245.915	-1350.2773	201.11102	874.90063	-1077.0889	187.441	884.1899	-1335.786	362.9359	946.9587	-1167.4069	360.3173	944.9721	-1241.9023	269.13464	553.16315	-1001.449	291.60611	417.95139	-1004.0269	308.0119	220.86325	-962.28632	311.63034	63.446194	-968.52478	333.76248	48.980511	-1025.402	161.94312	37.705868	-949.98834	254.8602	728.24219	-1401.3191	291.5036	419.57278	-1411.3872	303.03104	332.89694	-1436.8748	307.11533	73.221878	-1434.355	328.74493	48.784817	-1370.7791	162.36786	40.208942	-1462.6147	
3	0.01	296.92633	1323.7457	-1196.9139	151.19905	1240.5496	-1193.4744	315.43878	1245.9327	-1350.2612	200.92601	874.9043	-1077.0836	187.3008	884.2643	-1335.7682	362.7338	947.0837	-1167.163	360.0715	944.9525	-1241.8226	268.94904	553.16638	-1001.4265	291.41681	417.97174	-1003.9622	307.96854	220.87074	-962.31714	311.61264	63.49361	-968.54657	333.70111	49.145584	-1025.488	161.94206	37.704197	-949.90637	254.66766	728.35956	-1401.3395	291.09927	419.69424	-1411.5131	302.67136	332.9585	-1436.9629	307.10297	73.335327	-1434.3281	328.67896	48.874348	-1370.6875	162.35297	40.226189	-1462.5835	
4	0.015	296.65152	1323.8311	-1196.8693	150.90727	1240.5808	-1193.3875	315.18491	1246.0265	-1350.2733	200.74255	874.95941	-1077.0809	187.1506	884.3304	-1335.7809	362.5727	947.136	-1167.2072	359.8946	945.011	-1241.7957	268.74408	553.23859	-1001.4356	291.21344	418.03568	-1003.9216	307.93988	220.8997	-962.34265	311.59006	63.527466	-968.60333	333.64456	49.234016	-1025.5662	161.91977	37.706398	-949.87292	254.48387	728.46338	-1401.355	290.62805	419.72818	-1411.6185	302.31708	332.97928	-1437.0303	307.10083	73.352127	-1434.3081	328.6626	48.865314	-1370.6964	162.34708	40.213242	-1462.5708	
5	0.02	296.3898	1323.8906	-1196.8756	149.2728	1241.0211	-1193.8655	315.01843	1246.1063	-1350.2983	200.58592	875.0542	-1077.0791	187.0304	884.3778	-1335.8276	362.4564	947.1408	-1167.4266	359.8127	945.1636	-1241.8705	268.52744	553.33704	-1001.4183	290.9968	418.16034	-1003.8541	307.89374	220.99161	-962.38904	311.638	63.582024	-968.73999	333.55777	49.272087	-1025.6902	161.9445	37.723053	-949.84558	254.33472	728.5318	-1401.3956	290.1474	419.69897	-1411.7482	301.95935	332.94647	-1437.1045	307.12976	73.259178	-1434.2935	328.65985	48.875996	-1370.7623	162.37265	40.13147	-1462.5435	
6	0.025	296.13849	1323.9653	-1196.9349	149.09744	1241.0475	-1193.9	314.80701	1246.1526	-1350.3296	200.44524	875.14899	-1077.0588	186.9176	884.412	-1335.8733	362.3662	947.2137	-1167.6648	359.7776	945.3129	-1242.0181	268.29968	553.495	-1001.3771	290.75748	418.31671	-1003.7559	307.89331	221.10619	-962.49866	311.67523	63.671017	-968.87744	333.44785	49.335949	-1025.8323	161.92075	37.72427	-949.80493	254.25616	728.62457	-1401.3405	289.67593	419.70673	-1411.9146	301.56693	332.92502	-1437.2214	307.10315	73.169144	-1434.2708	328.62357	48.919491	-1370.8064	162.37477	40.051842	-1462.5497	
7	0.03	295.88937	1324.0573	-1196.9612	149.06181	1241.1908	-1193.2388	314.58395	1246.2675	-1350.4244	200.31862	875.23962	-1077.0806	186.774	884.5173	-1335.9434	362.2495	947.3392	-1167.7306	359.674	945.4269	-1242.0891	268.08087	553.59961	-1001.3527	290.51431	418.4097	-1003.6905	307.86472	221.18349	-962.55402	311.66278	63.717991	-968.97284	333.29037	49.441006	-1025.9459	161.90085	37.753635	-949.7619	253.90459	728.66119	-1401.4946	289.19553	419.75461	-1412.0664	301.16333	332.97293	-1437.308	307.02521	73.203964	-1434.235	328.5589	48.946453	-1370.8286	162.34152	40.057507	-1462.5544	
8	0.035	295.65796	1324.146	-1197.0137	148.98332	1241.1982	-1193.0469	314.37299	1246.354	-1350.4567	200.19606	875.32605	-1077.0891	186.6639	884.6341	-1336.0388	362.0974	947.5004	-1167.5948	359.5244	945.4331	-1242.1455	267.85522	553.73767	-1001.2418	290.25076	418.53018	-1003.5828	307.82013	221.21367	-962.62079	311.6478	63.782059	-969.06512	333.15588	49.609749	-1026.0837	161.87697	37.789524	-949.67737	253.71245	728.77039	-1401.4984	288.65753	419.86581	-1412.2109	300.96622	333.51819	-1437.6357	306.9516	73.333488	-1434.2306	328.44815	49.045975	-1370.7034	162.29688	40.110447	-1462.5529	
9	0.04	295.43835	1324.222	-1197.0544	149.0145	1241.2355	-1192.6035	314.1507	1246.4597	-1350.489	200.08838	875.44238	-1077.0989	186.5644	884.7606	-1336.1051	361.9548	947.6597	-1167.4492	359.3693	945.3428	-1242.1655	267.61496	553.83655	-1001.1357	289.93399	418.57309	-1003.4777	307.76639	221.2401	-962.69244	311.61075	63.804337	-969.14929	333.05609	49.788105	-1026.2688	161.88148	37.804684	-949.57562	253.45886	728.93921	-1401.5746	288.14151	419.98203	-1412.3291	300.35074	333.24796	-1437.5081	306.82568	73.487648	-1434.1938	328.33554	49.191483	-1370.4829	162.26547	40.145924	-1462.5353	
10	0.045	295.24991	1324.3083	-1197.1173	149.80884	1240.8341	-1193.2378	313.99603	1246.5233	-1350.5023	199.96793	875.54828	-1077.0732	186.5009	884.8121	-1336.1685	361.8201	947.7825	-1167.3623	359.2737	945.2724	-1242.2402	267.34225	554.01031	-1000.9977	289.6478	418.67038	-1003.3842	307.69	221.26268	-962.74042	311.61685	63.831917	-969.23676	332.88251	49.867107	-1026.3868	161.89461	37.772362	-949.48688	253.65341	729.32562	-1401.4232	287.65854	420.04871	-1412.4265	299.96863	333.28146	-1437.535	306.78323	73.549385	-1434.1569	328.28738	49.257198	-1370.4218	162.27332	40.105328	-1462.5209	
11	0.05	295.06589	1324.3759	-1197.1703	149.6974	1240.8715	-1193.384	313.81479	1246.6188	-1350.531	199.85159	875.73419	-1077.0834	186.434	884.8513	-1336.2185	361.7508	947.8263	-1167.5701	359.1705	945.3509	-1242.265	267.10712	554.21301	-1000.8757	289.33322	418.7995	-1003.2554	307.6376	221.32753	-962.84204	311.59784	63.908749	-969.37067	332.66946	49.902699	-1026.5529	161.89499	37.766537	-949.33795	253.27855	729.11877	-1401.5507	287.21478	420.07742	-1412.5149	299.60461	333.25262	-1437.5566	306.74878	73.521164	-1434.1373	328.24518	49.279644	-1370.4081	162.26672	40.004322	-1462.4751	
12	0.055	294.87015	1324.4745	-1197.1924	149.54436	1240.9421	-1193.2971	313.63718	1246.7386	-1350.5427	199.74648	875.92822	-1077.0879	186.3578	884.8808	-1336.2882	361.6995	947.8869	-1167.679	359.1194	945.4457	-1242.3802	266.88232	554.40936	-1000.7806	289.04181	418.93594	-1003.1884	307.61227	221.44635	-962.96112	311.60965	63.980549	-969.54364	332.5116	50.020897	-1026.7667	161.87218	37.752289	-949.12531	253.13083	729.2207	-1401.5872	286.76257	420.10202	-1412.6378	299.26038	333.30045	-1437.592	306.68634	73.54995	-1434.1068	328.17795	49.364471	-1370.4167	162.2262	39.997654	-1462.4889	
13	0.06	294.69489	1324.6686	-1197.2349	149.45068	1241.0812	-1193.1913	313.4783	1246.9885	-1350.5775	199.68599	876.11749	-1077.1998	186.2832	884.9958	-1336.3579	361.6363	948.0416	-1167.7195	359.0203	945.4871	-1242.4684	266.65643	554.60333	-1000.6599	288.73245	419.04459	-1003.1022	307.60565	221.49077	-963.12439	311.59039	64.036819	-969.72839	332.36597	50.254795	-1027.0376	161.80157	37.814976	-948.93848	252.98149	729.36414	-1401.5968	286.35461	420.21478	-1412.6853	298.92984	333.40845	-1437.6211	306.64774	73.66935	-1434.0858	328.12903	49.473045	-1370.3872	162.20442	40.006313	-1462.4567	
14	0.065	294.50046	1324.8234	-1197.2506	148.867	1241.1207	-1192.0952	313.31802	1247.1997	-1350.6476	199.6692	876.32458	-1077.2944	186.1971	885.1186	-1336.4519	361.6018	948.1963	-1167.7125	358.9109	945.4645	-1242.5745	266.36966	554.82977	-1000.4898	288.37897	419.21558	-1002.9781	307.6059	221.5914	-963.26758	311.59561	64.131813	-969.9455	332.48633	50.622208	-1027.5741	161.75575	37.864365	-948.77753	252.85196	729.5174	-1401.6185	285.95132	420.39948	-1412.7639	298.62756	333.5986	-1437.6602	306.57056	73.843513	-1434.0726	328.08871	49.646774	-1370.3149	162.18408	40.08152	-1462.4843	
15	0.07	294.34518	1325.0258	-1197.3594	149.27324	1241.33	-1193.2244	313.1749	1247.4351	-1350.7404	199.59735	876.58844	-1077.3384	186.0991	885.2081	-1336.5044	361.5643	948.3227	-1167.865	358.9332	945.6783	-1242.7411	266.09329	555.11267	-1000.3226	288.03821	419.3952	-1002.8957	307.59238	221.696	-963.4068	312.12097	64.171761	-970.17224	332.02051	50.626743	-1027.6803	161.71764	37.895058	-948.62604	252.69223	729.57422	-1401.6698	285.58475	420.48929	-1412.861	298.49774	333.97464	-1437.8439	306.54102	73.935555	-1434.0914	328.05432	49.788345	-1370.3406	162.162	40.076424	-1462.5219	
16	0.075	294.21692	1325.1885	-1197.4467	149.22552	1241.4001	-1193.2874	313.08505	1247.6394	-1350.8441	199.50928	876.83936	-1077.3439	186.0374	885.2546	-1336.5508	361.5521	948.3817	-1168.1825	358.9298	945.8505	-1242.8398	265.80527	555.37738	-1000.1785	287.68652	419.60239	-1002.7907	307.5983	221.84831	-963.57672	312.05429	64.227806	-970.44067	331.68817	50.697067	-1028.0111	161.70128	37.940525	-948.48621	252.54356	729.60394	-1401.7219	285.31195	420.48514	-1412.9568	298.13367	333.70047	-1437.7838	306.53052	73.949463	-1434.0814	328.0267	49.846447	-1370.3918	162.15529	40.030407	-1462.5769	
17	0.08	294.08133	1325.3499	-1197.5469	149.16722	1241.4441	-1193.3967	312.90842	1247.7865	-1350.9059	199.46178	877.08472	-1077.4164	185.9692	885.3123	-1336.6069	361.5206	948.4935	-1168.2909	358.8989	945.9425	-1242.9471	265.55322	555.63422	-999.97791	287.33078	419.75363	-1002.7103	307.54407	221.98813	-963.70398	311.97177	64.302917	-970.7124	331.30917	50.744743	-1028.4025	161.68655	37.934448	-948.33716	252.3672	729.62299	-1401.7428	284.9863	420.47995	-1413.0569	297.90594	333.75305	-1437.8253	306.50934	73.989525	-1434.1027	328.00687	49.950653	-1370.3019	162.1516	39.976963	-1462.5973	
